<svg id="Layer_1" data-name="Layer 1" xmlns="http://www.w3.org/2000/svg" viewBox="0 0 882 317"><defs><style>.cls-1{fill:#010101;}</style></defs><path class="cls-1" d="M154.48,70.69,173,52.19a13.08,13.08,0,0,0-18.5-18.5L136,52.19,108.2,24.41a13,13,0,0,0-18.5,0l-37.13,37a13,13,0,0,0,0,18.5l46.35,46.35L136,89.18l9.28,9.29L98.92,144.81,43.36,89.25a13.08,13.08,0,0,0-18.5,18.5L89.7,172.59a13,13,0,0,0,18.5,0L173,107.75a13,13,0,0,0,0-18.5ZM98.92,89.18,80.35,70.69l18.5-18.5,18.5,18.5Z"/><path class="cls-1" d="M228.81,98.47c0-35.1,21.07-61,55.62-61,24.87,0,40.93,11.85,48.58,28.93L314.11,76C309,63.91,299.27,56.25,283.89,56.25c-21.41,0-34.42,16.2-34.42,42.28,0,26.23,14.7,42.08,37.06,42.08,17,0,31.24-9.82,32.59-30.22H277.73V92.5h60.43V157H319.94V140.27c-6.37,11.86-18.7,19.24-36.59,19.24-33.34-.06-54.54-25.95-54.54-61"/><path class="cls-1" d="M351.44,114.19c0-26.23,16.74-45.13,43.1-45.13,24,0,41.6,17.55,41.6,42.42,0,3.65-.34,7.52-.48,9.21H370.82c2.17,13,11.05,21.41,23.38,21.41,9.69,0,15.18-4.67,18.7-10.7l16.73,9.68c-8.87,14.37-21.75,18.37-35.43,18.37-25.07,0-42.76-18.23-42.76-45.26m65.46-8.54c-1.36-10.37-9.35-19.72-22.91-19.72-13,0-20.73,7.86-22.9,19.72Z"/><rect class="cls-1" x="449.35" y="39.99" width="18.9" height="116.95"/><path class="cls-1" d="M480.59,132.34c0-18.7,16.39-26.69,34.08-26.69h23.24V102c0-10.5-7.18-15.72-17.35-15.72S504.71,91.76,502,97.79L485,87.42c6-10.5,18.23-18.36,35.1-18.36,22.56,0,36.59,12.53,36.59,30.42v35.1c0,4.67,1.69,6.37,6.7,6.37h1.16V157h-7.32c-9.56,0-14.84-3.19-16.53-10.71C536.15,153.62,527,159,513.45,159c-16.67-.07-32.86-7.25-32.86-26.63m35.57,10.71c10.36,0,21.75-4.68,21.75-19.24v-3.19H516.7c-11.72,0-17,4.54-17,11.18s6.44,11.25,16.47,11.25"/><path class="cls-1" d="M580.46,134V87.63H564.4V71.77h16.06V40h18.9V71.7h22.7V87.63h-22.7v43.63c0,7.32,2.51,9.82,10.84,9.82h11.86v15.86H605.19c-16.19,0-24.73-7.39-24.73-22.9"/><path class="cls-1" d="M626.53,114.32c0-28.25,18.7-45.26,44.11-45.26,25.21,0,43.91,17,43.91,45.26s-18.7,45.26-43.91,45.26-44.11-17-44.11-45.26m44.11,28.05c15,0,24.87-10.84,24.87-28.05,0-17-9.83-28-24.87-28s-25.07,11-25.07,28.05c.07,17.21,10,28.05,25.07,28.05"/><path class="cls-1" d="M228.52,239.33c0-35.16,21.21-60.84,55.36-60.84,24.86,0,40.86,11.85,48.38,29.33l-18.84,9c-5.35-12.54-14.84-19.52-30-19.52-20.53,0-34.14,15.86-34.14,42s13.68,42,34.14,42c15.18,0,24.33-7.18,30-19.65l18.84,9.15c-7.66,17.48-23.52,29.34-48.38,29.34-34.35,0-55.36-25.68-55.36-60.85"/><path class="cls-1" d="M342.76,255.19c0-28.19,18.7-45.2,44-45.2s43.84,17,43.84,45.2-18.7,45.19-43.84,45.19c-25.34,0-44-17-44-45.19m44,28c15,0,24.87-10.84,24.87-28s-9.83-28-24.87-28-25,11-25,28,10,28,25,28"/><path class="cls-1" d="M445.61,212.63H463.3v12.2c4-8.67,14-14.5,25.67-14.5,20.2,0,31.85,12.67,31.85,31v56.38H502V246c0-11.86-7.52-18.36-18.7-18.36-11,0-18.83,7-18.83,18.83v51.23H445.61Z"/><path class="cls-1" d="M539.86,212.63h17.68v12.2c4-8.67,14-14.5,25.68-14.5,20.19,0,31.85,12.67,31.85,31v56.38H596.23V246c0-11.86-7.52-18.36-18.7-18.36-11,0-18.83,7-18.83,18.83v51.23H539.86Z"/><path class="cls-1" d="M628.35,255.05c0-26.15,16.67-45,43-45,24,0,41.54,17.48,41.54,42.35,0,3.66-.34,7.52-.48,9.14h-64.7c2.17,13,11,21.35,23.37,21.35,9.69,0,15.18-4.68,18.7-10.64L706.47,282c-8.81,14.36-21.68,18.36-35.37,18.36-25.07-.14-42.75-18.29-42.75-45.26m65.38-8.54c-1.35-10.36-9.35-19.65-22.83-19.65-13,0-20.67,7.86-22.83,19.65Z"/><path class="cls-1" d="M723.88,255.19c0-28.19,18.5-45.2,43.16-45.2,15.86,0,28,6.37,35.37,18.84l-16.19,10a21.63,21.63,0,0,0-19.85-11.66c-14.16,0-23.51,11-23.51,28s9.35,28,23.37,28c9.83,0,16.53-4.47,21.34-14.16l16.54,9.69c-7.32,14.7-20.53,21.68-37,21.68-24.66,0-43.23-17-43.23-45.19"/><path class="cls-1" d="M826.47,274.83V228.49h-16V212.64h16V181H845.3V212.7H868v15.86H845.3v43.5c0,7.31,2.51,9.82,10.84,9.82H868v15.86H851.13c-16.19,0-24.66-7.39-24.66-22.91"/></svg>