<svg width="206" height="30" viewBox="0 0 206 30" fill="none" xmlns="http://www.w3.org/2000/svg">
<path d="M26.7635 10.9712L29.4457 8.28889C30.187 7.54766 30.187 6.34786 29.4457 5.60663C28.7045 4.87168 27.4984 4.87168 26.7635 5.61291L24.0812 8.29517L20.061 4.27492C19.3197 3.53369 18.1199 3.53369 17.3787 4.27492L12.0142 9.63316C11.2729 10.3744 11.2729 11.5742 12.0142 12.3154L18.7167 19.0179L24.0812 13.6534L25.4192 14.9914L18.7167 21.6939L10.6762 13.6534C9.93494 12.9122 8.73515 12.9122 7.99391 13.6534C7.25268 14.3946 7.25268 15.5944 7.99391 16.3357L17.3787 25.7205C18.1199 26.4617 19.3197 26.4617 20.061 25.7205L29.4457 16.3357C30.187 15.5944 30.187 14.3946 29.4457 13.6534L26.7635 10.9712ZM18.7167 13.6534L16.0344 10.9712L18.7167 8.29517L21.3989 10.9774L18.7167 13.6534Z" fill="#FFFFFF"/>
<path d="M38.0015 15.0003C38.0015 10.1688 40.9015 6.60498 45.6613 6.60498C49.0876 6.60498 51.3 8.2374 52.3584 10.5874L49.7573 11.8969C49.0457 10.2405 47.7123 9.18217 45.5955 9.18217C42.6536 9.18217 40.8537 11.4125 40.8537 15.0003C40.8537 18.6119 42.8808 20.7945 45.9603 20.7945C48.3042 20.7945 50.2595 19.4371 50.4449 16.6327H44.7404V14.1691H53.0699V23.0488H50.5645V20.7466C49.6915 22.379 47.9873 23.3896 45.5237 23.3896C40.9195 23.3956 38.0015 19.8258 38.0015 15.0003Z" fill="#FFFFFF"/>
<path d="M54.8398 17.1593C54.8398 13.5476 57.142 10.9465 60.7775 10.9465C64.0902 10.9465 66.5059 13.3623 66.5059 16.7886C66.5059 17.2968 66.4581 17.823 66.4342 18.0562H57.5067C57.8057 19.8501 59.0255 20.9982 60.7297 20.9982C62.0631 20.9982 62.8225 20.3524 63.3069 19.5272L65.609 20.8606C64.3892 22.8399 62.6192 23.39 60.7297 23.39C57.2795 23.396 54.8398 20.8845 54.8398 17.1593ZM63.857 15.9873C63.6716 14.5582 62.5714 13.2726 60.7058 13.2726C58.9119 13.2726 57.8535 14.3549 57.5546 15.9873H63.857Z" fill="#FFFFFF"/>
<path d="M68.2764 7.28711H70.8775V23.39H68.2764V7.28711Z" fill="#FFFFFF"/>
<path d="M72.647 19.7425C72.647 17.1653 74.9013 16.0591 77.3409 16.0591H80.54V15.5508C80.54 14.1038 79.5534 13.3862 78.1482 13.3862C76.7669 13.3862 75.9596 14.1456 75.5949 14.9708L73.2509 13.5477C74.0821 12.1006 75.7563 11.0183 78.0824 11.0183C81.1858 11.0183 83.1232 12.7464 83.1232 15.204V20.0355C83.1232 20.6813 83.3504 20.9085 84.044 20.9085H84.2054V23.1149H83.1949C81.8854 23.1149 81.1499 22.6784 80.9167 21.644C80.2948 22.6545 79.0331 23.39 77.1675 23.39C74.8773 23.396 72.647 22.4094 72.647 19.7425ZM77.5442 21.2134C78.9733 21.2134 80.534 20.5677 80.534 18.5705V18.134H77.61C76.0015 18.134 75.266 18.7559 75.266 19.6767C75.266 20.5916 76.163 21.2134 77.5442 21.2134Z" fill="#FFFFFF"/>
<path d="M88.182 20.233V13.8348H85.9756V11.6463H88.182V7.28125H90.7831V11.6523H93.9105V13.8408H90.7831V19.8443C90.7831 20.8548 91.13 21.2016 92.278 21.2016H93.9105V23.3902H91.5844C89.36 23.3842 88.182 22.3736 88.182 20.233Z" fill="#FFFFFF"/>
<path d="M95.6812 17.1532C95.6812 13.2665 98.2583 10.9165 101.756 10.9165C105.23 10.9165 107.808 13.2605 107.808 17.1532C107.808 21.0399 105.23 23.3899 101.756 23.3899C98.2583 23.3899 95.6812 21.0399 95.6812 17.1532ZM101.756 21.016C103.825 21.016 105.183 19.5211 105.183 17.1532C105.183 14.8092 103.825 13.2904 101.756 13.2904C99.6875 13.2904 98.3062 14.8092 98.3062 17.1532C98.3062 19.5211 99.6875 21.016 101.756 21.016Z" fill="#FFFFFF"/>
<path d="M109.577 15.0066C109.577 10.1632 112.495 6.62329 117.201 6.62329C120.621 6.62329 122.828 8.25571 123.862 10.6655L121.267 11.9032C120.532 10.1811 119.222 9.21842 117.135 9.21842C114.313 9.21842 112.429 11.401 112.429 15.0066C112.429 18.5884 114.313 20.7948 117.135 20.7948C119.222 20.7948 120.49 19.8082 121.267 18.0861L123.862 19.3478C122.804 21.7575 120.627 23.39 117.201 23.39C112.471 23.39 109.577 19.8501 109.577 15.0066Z" fill="#FFFFFF"/>
<path d="M125.633 17.1654C125.633 13.2847 128.204 10.9407 131.696 10.9407C135.164 10.9407 137.735 13.2847 137.735 17.1654C137.735 21.0461 135.164 23.3901 131.696 23.3901C128.204 23.3901 125.633 21.0461 125.633 17.1654ZM131.696 21.0222C133.765 21.0222 135.116 19.5273 135.116 17.1654C135.116 14.8214 133.759 13.3086 131.696 13.3086C129.627 13.3086 128.252 14.8214 128.252 17.1654C128.252 19.5273 129.627 21.0222 131.696 21.0222Z" fill="#FFFFFF"/>
<path d="M139.511 11.6762H141.945V13.3504C142.495 12.1545 143.876 11.3533 145.478 11.3533C148.259 11.3533 149.861 13.0993 149.861 15.6227V23.3841H147.266V16.2685C147.266 14.636 146.232 13.7451 144.695 13.7451C143.182 13.7451 142.1 14.7078 142.1 16.3402V23.3901H139.505L139.511 11.6762Z" fill="#FFFFFF"/>
<path d="M151.631 11.6762H154.065V13.3504C154.615 12.1545 155.996 11.3533 157.599 11.3533C160.379 11.3533 161.982 13.0993 161.982 15.6227V23.3841H159.393V16.2685C159.393 14.636 158.358 13.7451 156.822 13.7451C155.309 13.7451 154.226 14.7078 154.226 16.3402V23.3901H151.631V11.6762Z" fill="#FFFFFF"/>
<path d="M163.752 17.1713C163.752 13.5656 166.049 10.9705 169.678 10.9705C172.985 10.9705 175.395 13.3802 175.395 16.8005C175.395 17.3028 175.347 17.835 175.323 18.0622H166.413C166.712 19.8561 167.926 21.0041 169.63 21.0041C170.964 21.0041 171.717 20.3584 172.202 19.5332L174.498 20.8666C173.278 22.8399 171.514 23.39 169.63 23.39C166.186 23.396 163.752 20.8905 163.752 17.1713ZM172.752 15.9993C172.566 14.5761 171.466 13.2905 169.606 13.2905C167.813 13.2905 166.76 14.3668 166.461 15.9993H172.752Z" fill="#FFFFFF"/>
<path d="M177.165 17.1712C177.165 13.2905 179.712 10.9465 183.114 10.9465C185.297 10.9465 186.971 11.8195 187.982 13.5417L185.751 14.917C185.201 13.9303 184.28 13.3085 183.019 13.3085C181.069 13.3085 179.784 14.8213 179.784 17.1653C179.784 19.5332 181.069 21.0221 183.001 21.0221C184.358 21.0221 185.273 20.4002 185.943 19.0727L188.215 20.4062C187.204 22.4273 185.392 23.39 183.114 23.39C179.712 23.396 177.165 21.052 177.165 17.1712Z" fill="#FFFFFF"/>
<path d="M192.191 20.2443V13.8582H189.984V11.6756H192.191V7.31055H194.786V11.6756H197.907V13.8582H194.786V19.8497C194.786 20.8602 195.133 21.207 196.281 21.207H197.913V23.3896H195.593C193.363 23.3896 192.191 22.379 192.191 20.2443Z" fill="#FFFFFF"/>
</svg>
